<?xml version="1.0" encoding="UTF-8"?>
<svg width="1200pt" height="1200pt" version="1.1" viewBox="0 0 1200 1200" xmlns="http://www.w3.org/2000/svg">
 <path d="m296.26 400.64c-5.6719 4.0781-7.9219 11.297-5.7656 17.859l16.266 49.828-42.375-30.891c-2.8125-2.0156-6.0469-3.0469-9.4219-3.0469-3.2344 0-6.6094 1.0312-9.4219 3.0469l-42.234 30.891 16.266-49.828c2.1562-6.6094-0.28125-13.828-5.9062-17.859l-42.375-30.703 52.453 0.09375c6.8438 0 13.031-4.4531 15.188-11.062l15.984-49.875 16.125 49.875c2.1562 6.6094 8.2031 11.062 15.188 11.062l52.453-0.09375zm91.875-62.672h-0.14062l-90.141 0.1875-27.703-85.828c-2.1562-6.5625-8.2031-11.062-15.188-11.062-6.8438 0-13.031 4.4531-15.188 11.062l-27.703 85.828-90.141-0.1875c-6.8438 0-13.031 4.4531-15.188 11.016s0.28125 13.781 5.7656 17.859l73.172 52.875-28.125 85.688c-2.1562 6.5625 0.28125 13.781 5.7656 17.859 5.6719 4.0781 13.172 4.0312 18.844 0l72.797-53.156 72.891 53.156c2.8125 2.0156 6.0469 3.0469 9.4219 3.0469 3.2344 0 6.4688-1.0312 9.2812-3.0469 5.6719-4.0781 7.9219-11.25 5.7656-17.859l-27.984-85.688 73.031-52.875c5.6719-4.0781 7.9219-11.25 5.7656-17.859-2.0625-6.6094-8.1562-11.016-15-11.016zm-26.625 733.6-95.25-95.297c-3.0938-3.0938-7.125-4.6406-11.297-4.6406-4.0312 0-8.0625 1.5469-11.297 4.6406l-95.25 95.297v-431.68c0-13.312 10.875-24.094 24.094-24.094h164.9c13.312 0 24.094 10.781 24.094 24.094zm-24.094-487.69h-164.9c-30.797 0-55.969 25.078-55.969 55.969v470.16c0 6.4219 3.8906 12.281 9.7969 14.719 6.0469 2.4844 12.938 1.125 17.484-3.4688l111.09-111.19 111.23 111.19c3.0938 3.0469 7.125 4.6875 11.297 4.6875 2.0156 0 4.0312-0.42187 6.0469-1.2188 5.9062-2.4844 9.7969-8.2969 9.7969-14.719l0.09375-470.11c0-30.891-25.172-56.016-55.969-56.016zm648.94-183.24c-5.6719 4.0781-7.9219 11.297-5.7656 17.859l16.266 49.828-42.375-30.891c-2.8125-2.0156-6.0469-3.0469-9.4219-3.0469-3.2344 0-6.6094 1.0312-9.2812 3.0469l-42.375 30.891 16.266-49.828c2.1562-6.6094-0.28125-13.828-5.7656-17.859l-42.516-30.703 52.453 0.09375c6.8438 0 13.031-4.4531 15.188-11.062l16.031-49.875 16.125 49.875c2.1562 6.6094 8.2031 11.062 15.188 11.062l52.453-0.09375zm106.92-51.656c-2.1562-6.5625-8.2031-11.016-15.047-11.016h-0.14062l-90.141 0.1875-27.703-85.828c-2.1562-6.5625-8.2031-11.062-15.188-11.062-6.8438 0-13.031 4.4531-15.047 11.062l-27.703 85.828-90.281-0.1875c-6.8438 0-13.031 4.4531-15.188 11.016s0.28125 13.781 5.9062 17.859l73.031 52.875-28.125 85.688c-2.1562 6.5625 0.28125 13.781 5.7656 17.859 5.6719 4.0781 13.172 4.0312 18.844 0l72.797-53.156 72.891 53.156c2.8125 2.0156 6.0469 3.0469 9.4219 3.0469 3.2344 0 6.6094-1.0312 9.2812-3.0469 5.6719-4.0781 7.9219-11.25 5.7656-17.859l-27.984-85.688 73.031-52.875c5.6719-4.125 7.9688-11.297 5.8125-17.859zm-41.719 722.58-95.25-95.297c-3.0938-3.0938-7.125-4.6406-11.297-4.6406-4.0312 0-8.0625 1.5469-11.297 4.6406l-95.25 95.297 0.046874-431.68c0-13.312 10.875-24.094 24.234-24.094h164.76c13.312 0 24.094 10.781 24.094 24.094zm-24.047-487.69h-164.81c-30.938 0-56.109 25.078-56.109 55.969v470.16c0 6.4219 3.8906 12.281 9.9375 14.719 5.9062 2.4844 12.797 1.125 17.344-3.4688l111.09-111.19 111.23 111.19c3.0938 3.0469 7.125 4.6875 11.297 4.6875 2.0156 0 4.0312-0.42188 6.0469-1.2188 5.9062-2.4844 9.7969-8.2969 9.7969-14.719l0.09375-470.11c0-30.891-24.984-56.016-55.922-56.016zm-386.21-350.44c-5.6719 4.0781-7.9219 11.297-5.7656 17.859l16.266 49.828-42.375-30.891c-2.8125-2.0625-6.0469-3.0469-9.4219-3.0469-3.2344 0-6.6094 1.0312-9.4219 3.0469l-42.234 30.891 16.266-49.828c2.1562-6.6094-0.28125-13.828-5.7656-17.859l-42.516-30.75 52.453 0.09375c6.8438 0 13.031-4.4531 15.047-11.062l16.125-49.875 16.125 49.875c2.1562 6.5625 8.2031 11.062 15.188 11.062l52.453-0.09375zm91.875-62.719h-0.14062l-90.141 0.14062-27.703-85.828c-2.1562-6.6094-8.2031-11.062-15.188-11.062-6.8438 0-13.031 4.4531-15.188 11.062l-27.562 85.828-90.281-0.14062c-6.8438 0-13.031 4.4531-15.188 11.016s0.28125 13.781 5.9062 17.812l73.031 52.875-28.125 85.688c-2.1562 6.5625 0.28125 13.781 5.7656 17.859 5.6719 4.0781 13.172 4.0312 18.844 0l72.75-53.156 72.891 53.156c2.8125 2.0156 6.0469 3.0469 9.4219 3.0469 3.2344 0 6.6094-1.0312 9.2812-3.0469 5.6719-4.0781 7.9219-11.297 5.7656-17.859l-27.984-85.688 73.031-52.875c5.6719-4.0781 7.9219-11.25 5.7656-17.812-2.0625-6.5625-8.1094-11.016-14.953-11.016zm-26.625 900.84-95.25-95.297c-3.0938-3.0938-7.125-4.6406-11.297-4.6406-4.0312 0-8.0625 1.5469-11.297 4.6406l-95.25 95.297v-598.92c0-13.312 10.875-24.094 24.094-24.094h164.9c13.312 0 24.094 10.781 24.094 24.094zm-24.094-654.89h-164.9c-30.797 0-55.969 25.078-55.969 55.969v637.36c0 6.4219 3.8906 12.281 9.7969 14.719 6.0469 2.4844 12.891 1.125 17.344-3.4688l111.23-111.19 111.23 111.19c3.0938 3.0469 7.125 4.6875 11.297 4.6875 2.0156 0 4.0312-0.42188 6.0469-1.2188 5.9062-2.4844 9.7969-8.2969 9.7969-14.719l0.09375-637.36c0-30.891-25.031-55.969-55.969-55.969z" fill-rule="evenodd"/>
</svg>
