<?xml version="1.0" encoding="UTF-8"?>
<svg width="128pt" height="128pt" version="1.1" viewBox="0 0 128 128" xmlns="http://www.w3.org/2000/svg">
 <path d="m113.23 70.383c-0.30469 0.57422-0.89453 0.89844-1.5 0.89844-0.26953 0-0.54688-0.066406-0.80078-0.19922l-3.9609-2.1211c-0.82422-0.44141-1.1406-1.4766-0.69531-2.3008 0.44141-0.82812 1.4688-1.1406 2.3008-0.69922l3.9609 2.1211c0.82422 0.44531 1.1406 1.4766 0.69531 2.3008zm-6.9609-22.086c-0.44531-0.82812-0.12891-1.8594 0.69531-2.3047l3.9609-2.1133c0.82812-0.44531 1.8594-0.12891 2.3008 0.69531 0.44531 0.82422 0.12891 1.8594-0.69531 2.3008l-3.9609 2.1211c-0.25391 0.13672-0.53125 0.19922-0.80078 0.19922-0.60547 0-1.1953-0.32422-1.5-0.89453zm8.3359 9.1797c0 0.94141-0.76172 1.6992-1.6992 1.6992h-4.4883c-0.94141 0-1.6992-0.76172-1.6992-1.6992 0-0.94141 0.76172-1.6992 1.6992-1.6992h4.4883c0.93359 0 1.6992 0.76172 1.6992 1.6992zm-19.859 16.746-0.55078-0.11328c-1.3438-0.69922-3.2656-4.4141-4.1562-10.797 3.3398 0 6.0586-2.7188 6.0586-6.0586 0-3.3438-2.7188-6.0586-6.0586-6.0586h-0.28906c0.56641-6.8555 2.3047-11.262 3.75-12.883l1.4062-0.66016c1.7812 0.60547 4.8164 7 4.8164 18.27-0.003906 11.602-3.2188 18.039-4.9766 18.305zm-5.0547-14.309h0.35156c1.4688 0 2.6602-1.1953 2.6602-2.6602s-1.1953-2.6602-2.6602-2.6602h-0.46875c-0.011719 0.43359-0.015625 0.875-0.015625 1.3242 0 1.4102 0.050781 2.7383 0.13672 3.9961zm-21.004-9.9961 19.738-9.2383c-1.5039 4.1133-2.2734 9.6914-2.2734 15.234 0 6.4766 1.0508 12.996 3.0898 17.18l-19.926-4.0898c-1.4219-6.0938-1.6445-12.797-0.62891-19.086zm-7.8945 30.863c-0.46094 0.22656-0.89844 0.46484-1.3281 0.71484l-1.9609-11.449 3.4453 0.70312zm4.4062 4.5156c0.44141 3.0195 0.625 6.1016 0.57031 9.4219-0.003907 0.40625-0.28125 0.72656-0.67578 0.80469-1.6758 0.32031-3.3203 0.28516-5.0234-0.11328-0.32031-0.074218-0.51953-0.26562-0.60938-0.57812-0.70312-2.4258-1.0469-4.9297-1.0156-7.4492 0.011719-0.72656 0.30859-1.3164 0.89062-1.7461 0.89453-0.67188 1.9102-1.2852 3.0234-1.8281 0.28516-0.14062 0.58594-0.21094 0.89062-0.21094 0.31641 0 0.62891 0.074219 0.91406 0.23047 0.56641 0.29688 0.94531 0.83594 1.0352 1.4766zm-1.7695 23.484c0.92578-0.39453 1.4805-1.2383 1.4805-2.25v-7.5391c-0.67969 0.089843-1.3633 0.14062-2.0547 0.14062-1.1914 0-2.3789-0.14062-3.5664-0.41406-1.5117-0.35547-2.6719-1.4492-3.1016-2.9414-0.80469-2.7461-1.1914-5.5859-1.1484-8.4453 0.011719-0.73438 0.14844-1.4297 0.41406-2.0703-2.4961-4.2969-5.2344-8.4531-8.375-10.625-1.5586-1.0859-3.1562-1.7031-4.8594-1.9102-0.53906 0.066407-1.0898 0.10156-1.6445 0.10156-7.3594 0-13.363-5.9297-13.484-13.266-3.0703-12.395-3.2812-25.051-0.63672-38.672 0.12109-0.63672 0.60156-1.1484 1.2266-1.3164 1.8359-0.49609 3.1133-2.1719 3.1133-4.0703 0-2.3242-1.8945-4.2148-4.2148-4.2148-3.1367 0-3.7734 1.7266-4.5742 5.9648-0.054687 0.27344-0.10547 0.54688-0.15625 0.81641-6.4883 33-6.6992 70.625-0.58594 98.625h26.656l-2.4297-18.785c-0.09375-0.71484 0.27344-1.4102 0.91406-1.7344 0.64453-0.32422 1.4219-0.21094 1.9453 0.28516l12.426 11.84c0.73438 0.69922 1.7305 0.87891 2.6562 0.48047zm-22.852-59.531c3.9141 0 7.4844 2.3242 9.1289 5.7969l-7.3711 3.4453c-0.60547 0.28516-0.98828 0.89844-0.98047 1.5742 0.035156 1.8008 0.12109 3.6367 0.25391 5.4531 0.054688 0.75391 0.60938 1.3867 1.3555 1.5391l3.2188 0.66016c-1.6406 1.1016-3.5781 1.7031-5.6094 1.7031-5.5664 0-10.09-4.5234-10.09-10.09 0-5.5547 4.5234-10.086 10.09-10.086zm4.3398 14.746c-0.058594-0.96484-0.10156-1.9297-0.12891-2.8906l20.234-9.4766c-0.64453 5.5195-0.42188 11.254 0.66016 16.621zm5.4766 4.5898 3.5352 0.72656 1.6641 9.7305c-1.9648-2.9141-4.1211-5.5-6.5742-7.1992-0.5-0.34375-1.0039-0.65625-1.5117-0.92969 1.0547-0.62891 2.0234-1.4102 2.8867-2.3242zm44.246-34.395c-1.1289 0-2.1445 0.44922-3.0508 1.25l-25.145 11.77-13.656 6.3906c-2.1953-4.7031-6.8867-7.7539-12.215-7.7539-4.8633 0-9.1367 2.5898-11.512 6.4609-1.5586-9.5742-1.375-19.398 0.54688-29.816 2.7383-1.1914 4.5781-3.9258 4.5781-6.9844 0-4.1992-3.4219-7.6133-7.6133-7.6133-2.7695 0-4.8359 1.0508-6.1289 3.1289-1.0391 1.6602-1.4219 3.6641-1.7852 5.6055-0.050781 0.26562-0.10156 0.53125-0.14844 0.78906-3.1289 15.926-4.8945 33.344-5.1016 50.383-0.21875 18.516 1.4492 36.145 4.8359 50.977 0.17578 0.77344 0.86328 1.3203 1.6562 1.3203h29.953c0.48438 0 0.95312-0.21094 1.2734-0.57812 0.32031-0.36328 0.46875-0.85547 0.41016-1.3398l-2.0586-15.945 8.9531 8.5312c1.7266 1.6406 4.1484 2.0781 6.3359 1.1445 2.1836-0.93359 3.5469-2.9961 3.5469-5.375v-9.2656c0.52344-0.69531 0.83984-1.5547 0.85547-2.4961 0.054688-3.5-0.14062-6.7617-0.60547-9.9648-0.25-1.7305-1.2812-3.1836-2.8164-4-0.49609-0.26172-1.0156-0.43359-1.5391-0.53516l0.13672-8.8242 3.25 0.66406 25.602 5.2539c0.46094 0.17187 0.94141 0.26172 1.4453 0.26172 5.5664 0 8.4805-10.926 8.4805-21.719 0-10.785-2.9141-21.715-8.4805-21.715z" fill="#545454" fill-rule="evenodd"/>
</svg>
