<?xml version="1.0" encoding="UTF-8"?>
<svg width="128pt" height="128pt" version="1.1" viewBox="0 0 128 128" xmlns="http://www.w3.org/2000/svg">
 <path d="m48.684 71.891c-1.2656-1.2617-3.1641-1.6406-4.8125-0.95703-1.6523 0.68359-2.7266 2.2969-2.7266 4.082s1.0742 3.3945 2.7266 4.0781c1.6484 0.68359 3.5469 0.30859 4.8125-0.95703 1.7188-1.7266 1.7188-4.5195 0-6.2461zm-3.1211-4.7852-0.003906 0.003906c3.1992 0 6.082 1.9258 7.3047 4.8789 1.2266 2.9531 0.55078 6.3555-1.7109 8.6172-2.2617 2.2617-5.6641 2.9375-8.6172 1.7148-2.9531-1.2266-4.8828-4.1094-4.8828-7.3047 0.003906-4.3672 3.543-7.9062 7.9062-7.9062zm28.84 4.793-1.793-1.0352-3.5859 2.0742v4.1562l1.793 1.0352 1.793 1.0391 3.5859-2.0781v-4.1523l-1.793-1.0352zm-0.90625-4.5352 2.6484 1.5273 2.668 1.5352c0.53906 0.3125 0.87109 0.88672 0.87109 1.5078v6.1602c0 0.66797-0.38281 1.2773-0.98438 1.5703l-2.6562 1.5273-2.5703 1.4961c-0.54688 0.3125-1.2188 0.30859-1.7578-0.011719l-2.6445-1.5352-2.668-1.5352-0.003906-0.003907c-0.53516-0.30859-0.86719-0.88281-0.86719-1.5039v-6.1602c0-0.66797 0.38281-1.2812 0.98438-1.5703l2.6562-1.5273 2.5781-1.4883-0.003906-0.003906c0.54688-0.3125 1.2188-0.30859 1.7578 0.015625zm-10.41-20.445h-8.832v8.832h8.832zm-10.578-3.4922 12.324 0.003907c0.96484 0 1.7461 0.77734 1.7461 1.7422v12.324c0 0.46094-0.18359 0.90625-0.51172 1.2344s-0.76953 0.51172-1.2344 0.51172h-12.32c-0.96484 0-1.7461-0.78125-1.7461-1.7461v-12.324c0-0.96484 0.78125-1.7422 1.7461-1.7422zm52.984 61.375v2.0938l10.879-6.2812-10.879-6.2812v2.0898c0 0.96484-0.78125 1.7461-1.7461 1.7461h-18.945 0.003907c-2.6211 1.9492-5.4531 3.5859-8.4492 4.8867h27.391c0.96484 0 1.7461 0.78125 1.7461 1.7461zm-73.137-19.98-2.625 4.5469c0.76172 0.89062 1.5625 1.7461 2.3984 2.5586v0.003907c0.98438 0.95703 2.0156 1.8672 3.0977 2.7188l9.0977-0.007813v-0.003906c-4.6836-2.3164-8.7773-5.6758-11.969-9.8164zm6.2734-47.91-4.5391-2.6211h-0.003906c-8.707 7.4102-13.719 18.277-13.695 29.711 0 0.46484-0.18359 0.90625-0.51172 1.2344s-0.77344 0.51172-1.2344 0.51172h-2.0938l6.2812 10.879 6.2812-10.879h-2.0938c-0.96094 0-1.7422-0.78125-1.7422-1.7461-0.003906-10.613 4.9297-20.625 13.352-27.09zm-3.7578-6.1836 7.7695 4.4805c0.55078 0.28125 0.91406 0.83984 0.94531 1.4609 0.03125 0.62109-0.26953 1.2109-0.79297 1.5469-8.2383 5.3164-13.434 14.25-13.977 24.039h3.3125c0.62109 0 1.1953 0.33203 1.5078 0.87109 0.30859 0.53906 0.30859 1.2031 0 1.7422l-9.2852 16.094c-0.30859 0.54297-0.88281 0.88281-1.5078 0.88672s-1.2031-0.32812-1.5195-0.86719l-9.2422-16h0.003907c-0.36328-0.53516-0.39844-1.2266-0.097657-1.7969 0.30469-0.57031 0.89844-0.92578 1.543-0.92578h3.4023c0.5-12.281 6.293-23.746 15.883-31.438 0.58984-0.47656 1.4219-0.51172 2.0547-0.09375zm51.656 12.453 2.6211-4.5391c-7.4102-8.707-18.273-13.715-29.707-13.695-0.96484 0-1.7461-0.78125-1.7461-1.7461v-2.0938l-10.879 6.2812 10.879 6.2812v-2.0898c0-0.96484 0.78125-1.7461 1.7461-1.7461 10.613-0.003906 20.625 4.9297 27.086 13.348zm6.0586-5.8516c0.48437 0.56641 0.55469 1.375 0.17969 2.0156l-4.582 7.9375 0.003906-0.003906c-0.3125 0.53516-0.88281 0.86719-1.5 0.87109-0.61719 0.003906-1.1914-0.32031-1.5078-0.85547-2.7891-4.2852-6.6016-7.8125-11.09-10.262-3.9766-2.1602-8.3867-3.4141-12.906-3.6602v3.3164c0 0.64844-0.35547 1.2422-0.92578 1.543-0.57031 0.30469-1.2617 0.26562-1.7969-0.09375l-16-9.2383v-0.003907c-0.53906-0.3125-0.87109-0.89062-0.86328-1.5156 0.003906-0.625 0.33984-1.2031 0.88672-1.5078l16.09-9.2891h-0.003907c0.53906-0.3125 1.2031-0.30859 1.7422 0 0.53906 0.3125 0.87109 0.88672 0.87109 1.5078v3.4023-0.003907c12.266 0.5 23.715 6.2734 31.406 15.84zm-82.691 60.824 24.633-0.023438v-0.003906c0.066406 0.003906 0.13281 0.003906 0.19922 0l22.695-0.023438c9.3945 0.55469 18.602-2.7891 25.453-9.2422 6.8477-6.4531 10.734-15.449 10.738-24.859 0-0.46484-0.1875-0.90625-0.51172-1.2344-0.32812-0.32812-0.77344-0.51172-1.2344-0.51172h-2.0938l6.2812-10.879 6.2812 10.879h-2.0898c-0.46484 0-0.91016 0.18359-1.2344 0.51172-0.32812 0.32812-0.51172 0.76953-0.51172 1.2344 0 10.359-4.1172 20.293-11.441 27.617-7.3242 7.3242-17.258 11.438-27.617 11.438h-49.547zm-3.4961-1.7383c0-0.49219 0.20703-0.95703 0.56641-1.2891 0.36328-0.33203 0.84375-0.49219 1.332-0.44922l21.633-0.023437c-1.4414-1.3516-2.7539-2.832-3.9258-4.4258-0.21094-0.50781-0.17578-1.082 0.10156-1.5586l4.5859-7.9375c0.30859-0.53516 0.87891-0.86328 1.4961-0.86719 0.61719-0.003906 1.1914 0.32031 1.5078 0.85156 2.9688 4.5469 7.082 8.2305 11.93 10.676 3.7383 1.8906 7.8242 2.9883 12.004 3.2305h3.6875c7.4961-0.45312 14.566-3.6484 19.867-8.9688 5.3008-5.3242 8.4648-12.406 8.8867-19.906h-3.3164c-0.64453 0-1.2383-0.35547-1.543-0.92578-0.30078-0.57031-0.26563-1.2617 0.097656-1.7969l9.2422-16h-0.003906c0.31641-0.53906 0.89453-0.87109 1.5195-0.86719s1.1992 0.34375 1.5078 0.88672l9.2891 16.086v0.003906c0.30859 0.53516 0.30859 1.1992 0 1.7383-0.3125 0.53906-0.88672 0.87109-1.5078 0.875h-3.4023c-0.4375 10.965-5.1055 21.336-13.031 28.93h13.078v-3.3633c0-0.64844 0.35547-1.2422 0.92578-1.543 0.57031-0.30469 1.2617-0.26562 1.7969 0.09375l16 9.2422c0.54297 0.3125 0.87109 0.89453 0.86719 1.5195s-0.34375 1.1992-0.88672 1.5039l-16.082 9.2891c-0.53906 0.3125-1.2031 0.3125-1.7422 0-0.53906-0.30859-0.87109-0.88672-0.875-1.5078v-3.3633h-93.855c-0.46094 0-0.90625-0.18359-1.2344-0.51172-0.32812-0.32812-0.51562-0.76953-0.51562-1.2344z" fill="#545454" fill-rule="evenodd"/>
</svg>
