<?xml version="1.0" encoding="UTF-8"?>
<svg width="128pt" height="128pt" version="1.1" viewBox="0 0 128 128" xmlns="http://www.w3.org/2000/svg">
 <path d="m26.574 29.645c6.5156 0 11.816-5.3008 11.816-11.816s-5.3008-11.816-11.816-11.816-11.816 5.3008-11.816 11.816 5.3008 11.816 11.816 11.816zm0-20.516c4.7969 0 8.6992 3.9062 8.6992 8.6992 0 4.7969-3.9062 8.6992-8.6992 8.6992-4.7969 0-8.6992-3.9062-8.6992-8.6992 0-4.7969 3.9062-8.6992 8.6992-8.6992zm43.344 89.648c3.1484-2.1094 5.2305-5.7031 5.2305-9.7734 0-5.9531-4.4492-10.891-10.199-11.656l-0.003907-28.301c2.4453-0.39453 4.5234-2.2383 5.0898-4.8047 0.73438-3.3516-1.3906-6.6758-4.7344-7.4141l-0.35156-0.074219v-7.5898h10.031v7.1992c0 0.039063 0.003906 0.074219 0.003906 0.11328 0 0.019532 0.003906 0.035157 0.011719 0.054688 0.003906 0.03125 0.011718 0.066406 0.015625 0.09375 0.003906 0.023438 0.011719 0.046875 0.015625 0.070312 0.003906 0.023438 0.011718 0.054688 0.019531 0.078126 0.011719 0.023437 0.015625 0.050781 0.023437 0.074218 0.011719 0.019532 0.015626 0.046875 0.023438 0.066406 0.011719 0.03125 0.023438 0.058594 0.039062 0.089844 0.011719 0.015625 0.015626 0.035156 0.023438 0.050782 0.019531 0.035156 0.039062 0.070312 0.058594 0.10156 0.003906 0.011719 0.011718 0.019531 0.015625 0.03125l0.003906 0.003906c0.035156 0.050782 0.070313 0.09375 0.10938 0.14453 0.011719 0.015624 0.023438 0.03125 0.035156 0.039062 0.023438 0.03125 0.054688 0.058594 0.085938 0.085938 0.015625 0.015624 0.035156 0.03125 0.050781 0.046874 0.03125 0.023438 0.058594 0.050782 0.09375 0.074219 0.015625 0.011719 0.03125 0.023438 0.046875 0.03125 0.046875 0.03125 0.09375 0.058594 0.14453 0.089844 0.011719 0.003906 0.023438 0.011719 0.035157 0.015625 0.039062 0.019531 0.078124 0.039062 0.125 0.054688 0.015624 0.003906 0.03125 0.011718 0.050781 0.015624 0.039062 0.015626 0.078125 0.023438 0.12109 0.035157 0.015626 0.003906 0.035157 0.011719 0.050782 0.015625 0.039062 0.011718 0.085937 0.015625 0.125 0.023437 0.015625 0.003907 0.035156 0.003907 0.050781 0.011719 0.050781 0.003906 0.10547 0.011719 0.15625 0.011719h29.402c0.089843 0 0.18359-0.011719 0.26953-0.023438 0.011719 0 0.015625-0.003906 0.023438-0.003906 0.085937-0.015625 0.17187-0.039063 0.25-0.070313 0.011718-0.003906 0.019531-0.003906 0.03125-0.011718 0.078124-0.035156 0.16016-0.070313 0.23437-0.11328 0.011719-0.003906 0.019532-0.011718 0.03125-0.019531 0.074219-0.050781 0.14453-0.10547 0.21484-0.16406 0.003906-0.003907 0.011719-0.011719 0.015625-0.011719l0.011719-0.011719c0.070312-0.066406 0.12891-0.14062 0.18359-0.21484 0.003906-0.003907 0.011718-0.015626 0.015625-0.019532 0.054687-0.074218 0.10156-0.16016 0.14062-0.24609 0.003906-0.003906 0.003906-0.011718 0.011718-0.019531 0.035157-0.085937 0.066407-0.17578 0.085938-0.26562 0-0.003906 0.003906-0.015625 0.003906-0.019531 0.019532-0.085937 0.03125-0.17578 0.035156-0.26953v-0.066406c0-0.078126-0.011718-0.16016-0.019531-0.23438 0-0.011718-0.003906-0.023437-0.003906-0.035156-0.015625-0.089844-0.039063-0.17578-0.070313-0.25391-0.003906-0.011719-0.011718-0.023438-0.015624-0.035156-0.03125-0.085938-0.070313-0.16406-0.12109-0.23828-0.003906-0.011718-0.015625-0.019531-0.019532-0.03125-0.050781-0.078124-0.10937-0.15625-0.17187-0.21875-0.003907-0.003906-0.003907-0.011718-0.011719-0.015624l-7.25-7.6484 7.25-7.6484c0.003906-0.003906 0.003906-0.011718 0.011719-0.015624 0.066406-0.070313 0.12109-0.14453 0.17187-0.21875 0.003907-0.011719 0.015626-0.019532 0.019532-0.03125 0.046875-0.074219 0.085937-0.15625 0.12109-0.23828 0.003906-0.011718 0.011718-0.023437 0.015624-0.035156 0.03125-0.085938 0.054688-0.16406 0.070313-0.25391 0.003906-0.011719 0.003906-0.023438 0.003906-0.035156 0.011719-0.074219 0.019531-0.15625 0.019531-0.23438v-0.066406c-0.003906-0.089844-0.015624-0.17969-0.035156-0.26953 0-0.003906-0.003906-0.015625-0.003906-0.019531-0.019531-0.089844-0.050781-0.17969-0.085938-0.26562-0.003906-0.003907-0.003906-0.011719-0.011718-0.019531-0.039063-0.085938-0.085938-0.17188-0.14062-0.24609-0.003907-0.003906-0.011719-0.015625-0.015625-0.019532-0.054688-0.074218-0.12109-0.14844-0.18359-0.21484l-0.011719-0.011719c-0.003906-0.003906-0.011719-0.003906-0.015625-0.011719-0.070312-0.066406-0.14453-0.12109-0.22656-0.17188-0.011719-0.003906-0.019532-0.011718-0.03125-0.019531-0.074219-0.046875-0.15625-0.085937-0.24609-0.12109-0.011719-0.003906-0.019531-0.011719-0.03125-0.011719-0.085938-0.03125-0.17188-0.054687-0.26172-0.070312-0.011719 0-0.019531-0.003906-0.03125-0.003906-0.074219-0.011719-0.15625-0.019532-0.23828-0.019532l-14.68-0.015624v-7.1641c0-0.85938-0.69531-1.5586-1.5586-1.5586h-24.73v-1.0391c0-0.85938-0.69531-1.5586-1.5586-1.5586-0.85938 0-1.5586 0.69531-1.5586 1.5586v28.496l-22.48-4.9492c-0.62891-0.14062-1.1992-0.19922-1.8438-0.19922l-22.613 0.003906c-6 0-10.887 4.8789-10.887 10.887v18.004c0 3.4297 2.7891 6.2188 6.2188 6.2188 1.1289 0 2.1914-0.30469 3.1055-0.83594v49.391c0 4.0859 3.3203 7.4062 7.4062 7.4062 2.6133 0 4.9141-1.3633 6.2305-3.4141 1.3555 1.4805 3.3008 2.4102 5.4609 2.4102 4.0859 0 7.4062-3.3203 7.4062-7.4062l0.003906-41.359v-28.254l22 4.8438v28.547c-5.75 0.76562-10.199 5.6953-10.199 11.656 0 4.0703 2.0781 7.6641 5.2305 9.7734-7.5156 2.6914-12.906 9.875-12.906 18.301v3.3477c0 0.85938 0.69531 1.5586 1.5586 1.5586h35.75c0.85938 0 1.5586-0.69531 1.5586-1.5586v-3.3438c0-8.4336-5.3945-15.621-12.906-18.309zm14.59-69.609-6.4219 4.2539v-4.2539zm17.785-8.7188-5.7734 6.0898c-0.57031 0.60156-0.57031 1.5469 0 2.1445l5.7734 6.0898-20.59-0.003907 8.8398-5.8633s0.003906 0 0.003906-0.003906c0.03125-0.019532 0.066406-0.046875 0.09375-0.070313 0.089844-0.070312 0.17188-0.14453 0.23828-0.23047 0-0.003906 0.003906-0.003906 0.003906-0.003906 0.023438-0.03125 0.046876-0.058594 0.070313-0.089844 0.003906-0.011718 0.015625-0.019531 0.023437-0.03125 0.015626-0.023437 0.03125-0.050781 0.046876-0.074218 0.011718-0.015625 0.023437-0.035156 0.03125-0.054688 0.011718-0.019531 0.019531-0.039062 0.03125-0.058594 0.011718-0.023437 0.023437-0.050781 0.035156-0.078124 0.003906-0.015626 0.011718-0.023438 0.015625-0.039063 0.015625-0.035156 0.023437-0.070313 0.035156-0.10547 0-0.003906 0.003906-0.011718 0.003906-0.015625 0.023438-0.078125 0.039063-0.16406 0.050781-0.25 0-0.011719 0.003907-0.015625 0.003907-0.023437v-0.03125c0.003906-0.039063 0.003906-0.085938 0.003906-0.125v-7.1641zm-14.176-8.7188v14.324l-23.176-0.003907v-14.32zm-49.516 28.773c-0.83984-0.18359-1.6719 0.34375-1.8555 1.1836-0.039063 0.17578-0.046875 0.35156-0.023438 0.51953-0.003906 0.058594-0.011718 0.12109-0.011718 0.18359v71.184c0 2.3633-1.9258 4.2891-4.2891 4.2891s-4.2891-1.9258-4.2891-4.2891v-34.34c0-0.85938-0.69531-1.5586-1.5586-1.5586-0.85938 0-1.5586 0.69531-1.5586 1.5586v35.34c0 2.3633-1.9258 4.2891-4.2891 4.2891-2.3633 0-4.2891-1.9258-4.2891-4.2891l0.011719-42.359v-30.414c0-0.85938-0.69531-1.5586-1.5586-1.5586-0.85938 0-1.5586 0.69531-1.5586 1.5586v18.004c0 1.7109-1.3906 3.1055-3.1055 3.1055-1.7109 0-3.1055-1.3906-3.1055-3.1055v-18.004c0-4.2852 3.4844-7.7695 7.7656-7.7695h22.625c0.42188 0 0.76172 0.035156 1.1758 0.12891l24.391 5.3711c0.003906 0 0.003906 0 0.011719 0.003906l1.5508 0.33984c1.6719 0.37109 2.7305 2.0312 2.3633 3.6992-0.37109 1.6719-2.0234 2.7305-3.6992 2.3633zm16.141 48.5c0-4.7656 3.875-8.6406 8.6406-8.6445h0.007813c4.7656 0 8.6406 3.8789 8.6406 8.6445s-3.875 8.6445-8.6445 8.6445c-4.7656 0-8.6445-3.8789-8.6445-8.6445zm24.961 29.863h-32.637v-1.7891c0-8.9961 7.3203-16.316 16.316-16.316 8.9961 0 16.316 7.3203 16.316 16.316zm31.391-20.09c3.1484-2.1094 5.2305-5.7031 5.2305-9.7734 0-6.4844-5.2734-11.762-11.762-11.762-6.4844 0-11.762 5.2734-11.762 11.762 0 4.0703 2.0781 7.6641 5.2305 9.7734-7.5156 2.6914-12.906 9.875-12.906 18.301v3.3438c0 0.85938 0.69531 1.5586 1.5586 1.5586h35.75c0.85938 0 1.5586-0.69531 1.5586-1.5586v-3.3438c0-8.4258-5.3906-15.609-12.906-18.301zm-15.172-9.7734c0-4.7656 3.875-8.6445 8.6445-8.6445 4.7656 0 8.6445 3.875 8.6445 8.6445 0 4.7656-3.875 8.6445-8.6445 8.6445-4.7695 0-8.6445-3.8789-8.6445-8.6445zm8.6406 11.762c8.9961 0 16.316 7.3203 16.316 16.316v1.7891h-32.629v-1.7891c0-8.9961 7.3203-16.316 16.316-16.316z" fill="#545454"/>
</svg>
