<?xml version="1.0" encoding="UTF-8"?>
<svg width="128pt" height="128pt" version="1.1" viewBox="0 0 128 128" xmlns="http://www.w3.org/2000/svg">
 <path d="m50.746 28.34c0.29688 0.89062-0.18359 1.8516-1.0742 2.1484l-3.6641 1.2266c-0.17969 0.058594-0.35937 0.089844-0.53906 0.089844-0.71094 0-1.375-0.44922-1.6094-1.1602-0.30078-0.89062 0.17969-1.8555 1.0703-2.1562l3.6719-1.2266c0.89063-0.29688 1.8516 0.17969 2.1484 1.0742zm-8.4219-5.2148c0-0.94141 0.76172-1.6992 1.6992-1.6992h3.8633c0.94141 0 1.6992 0.76172 1.6992 1.6992 0 0.94141-0.76172 1.6992-1.6992 1.6992h-3.8633c-0.94141 0-1.6992-0.76562-1.6992-1.6992zm1.5312-7.5195c0.29688-0.89062 1.2617-1.3711 2.1484-1.0742l3.6641 1.2266c0.89062 0.29688 1.3711 1.2617 1.0742 2.1484-0.23828 0.71094-0.90625 1.1641-1.6133 1.1641-0.17969 0-0.35938-0.03125-0.53906-0.089843l-3.6719-1.2305c-0.88672-0.29688-1.3633-1.2617-1.0664-2.1445zm40.125 5.8164c0.94141 0 1.6992 0.76172 1.6992 1.6992 0 0.94141-0.76172 1.6992-1.6992 1.6992h-3.8633c-0.94141 0-1.6992-0.76172-1.6992-1.6992 0-0.94141 0.76172-1.6992 1.6992-1.6992zm-6.7266 6.9219c0.29688-0.89062 1.2617-1.3711 2.1484-1.0742l3.6641 1.2266c0.89062 0.30078 1.3711 1.2656 1.0703 2.1562-0.23828 0.71094-0.90625 1.1602-1.6094 1.1602-0.17969 0-0.35938-0.03125-0.53906-0.089844l-3.6641-1.2266c-0.88672-0.30078-1.3711-1.2617-1.0703-2.1484zm0-10.434c-0.30078-0.89062 0.17969-1.8555 1.0703-2.1484l3.6641-1.2266c0.89062-0.30078 1.8516 0.17969 2.1484 1.0742 0.29688 0.89062-0.18359 1.8555-1.0703 2.1484l-3.6641 1.2305c-0.17969 0.058594-0.35938 0.089844-0.53906 0.089844-0.71094-0.003906-1.3711-0.45312-1.6094-1.1719zm38.516 22.441-26.414 7.8984c-0.98828 0.29688-1.8867 0.32422-2.8906 0.09375l-11.57-2.6406c-0.53125-0.12109-1.0859 0.019531-1.4961 0.375-0.41016 0.35547-0.625 0.88672-0.57813 1.4258l1.875 22.215c-3.9453 0.82031-6.9219 4.3242-6.9219 8.5117 0 2.5938 1.1445 4.9258 2.9492 6.5156-2.8711 1.2812-5.2383 3.4805-6.7305 6.2266-1.4844-2.75-3.8594-4.9492-6.7266-6.2266 1.8047-1.5938 2.9453-3.9258 2.9453-6.5156 0-4.1836-2.9688-7.6914-6.9141-8.5117l1.875-22.215c0.046875-0.53906-0.17188-1.0703-0.57812-1.4258-0.41016-0.35547-0.96484-0.49609-1.4961-0.375l-11.57 2.6406c-1.0039 0.23047-1.8945 0.19922-2.8867-0.09375l-26.414-7.8945c-0.65625-0.19922-1.0469-0.85156-0.89844-1.5234l0.035156-0.16016c0.14453-0.67969 0.79688-1.1211 1.4805-1.0156l4.3242 0.69531c0.68359 0.10938 1.3633-0.20312 1.7188-0.80078 0.45312-0.75 1.7539-1.1289 2.7734-0.81641 0.81641 0.25 1.0938 0.78906 1.6953 2.2695 0.070312 0.17969 0.14844 0.35938 0.21875 0.54688 0.20312 0.48438 0.62109 0.85156 1.1289 0.98438l11.273 3.0039c2.8555 0.76172 5.6953 0.16406 8.0039-1.6797l5.2969-4.2344c2.6055-2.0781 5.3633-3.1953 8.6836-3.5 2.6797-0.25 4.1641-0.38672 5.5195-0.41406 0.17188 0.011718 0.33984 0.015624 0.51172 0.015624 0.17187 0 0.33984-0.003906 0.51172-0.015624 1.3555 0.023437 2.8438 0.16406 5.5195 0.41406 3.3203 0.30859 6.0781 1.4219 8.6836 3.5l5.3008 4.2344c2.3047 1.8438 5.1445 2.4414 8 1.6797l11.281-3.0039c0.51172-0.13672 0.92578-0.5 1.1289-0.98438 0.074219-0.18359 0.14844-0.36328 0.22656-0.54688 0.60156-1.4805 0.87891-2.0195 1.6914-2.2695 1.0234-0.31641 2.3203 0.066406 2.7734 0.81641 0.35938 0.59375 1.0391 0.90625 1.7188 0.80078l4.3242-0.69531c0.68359-0.10938 1.3359 0.33594 1.4805 1.0156l0.035157 0.15625c0.14453 0.67578-0.24609 1.3281-0.90625 1.5234zm-34 37.879c0-2.9219-2.375-5.2969-5.2969-5.2969s-5.2969 2.375-5.2969 5.2969 2.375 5.2969 5.2969 5.2969 5.2969-2.375 5.2969-5.2969zm5.4805 19.469c0-5.9414-4.8359-10.773-10.773-10.773-5.9414 0-10.773 4.8359-10.773 10.773v12.871h21.547zm14.168-10.773c-5.9414 0-10.773 4.8359-10.773 10.773v12.871h19.695c1.0195 0 1.8516-0.82812 1.8516-1.8516v-11.02c0.003906-5.9414-4.8281-10.773-10.77-10.773zm0-13.984c-2.9219 0-5.2969 2.375-5.2969 5.2969s2.375 5.2969 5.2969 5.2969 5.2891-2.375 5.2891-5.2969c0.003907-2.9258-2.3711-5.2969-5.2891-5.2969zm-60.664 24.762v12.871h21.547v-12.871c0-5.9414-4.8359-10.773-10.773-10.773-5.9414 0-10.77 4.8359-10.77 10.773zm-24.949 11.02c0 1.0195 0.82812 1.8516 1.8516 1.8516h19.695v-12.871c0-5.9414-4.8359-10.773-10.773-10.773-5.9414 0-10.773 4.8359-10.773 10.773zm5.4805-30.488c0 2.9219 2.375 5.2969 5.2969 5.2969s5.2891-2.375 5.2891-5.2969-2.375-5.2969-5.2891-5.2969c-2.9219 0.003906-5.2969 2.375-5.2969 5.2969zm24.949 0c0 2.9219 2.375 5.2969 5.2969 5.2969s5.2969-2.375 5.2969-5.2969-2.375-5.2969-5.2969-5.2969c-2.9219 0.003906-5.2969 2.375-5.2969 5.2969zm17.766-60.789c3.5547 0 6.4453 2.8906 6.4453 6.4414 0 3.4141-2.6758 6.2188-6.0352 6.4297-0.26953-0.003906-0.53906-0.003906-0.81641 0-3.3594-0.21094-6.0352-3.0156-6.0352-6.4297 0-3.5508 2.8906-6.4414 6.4414-6.4414zm55.996 20.664-0.035156-0.15625c-0.53125-2.4453-2.875-4.0508-5.3398-3.6562l-3.3633 0.53516c-1.4531-1.4219-3.8008-2-5.9219-1.3516-2.3008 0.70312-3.125 2.4766-3.7383 3.9844l-10.461 2.7891c-1.8086 0.48438-3.5391 0.12109-5.0039-1.0508l-5.2969-4.2344c-2.9805-2.3789-6.125-3.7109-9.8555-4.1602 1.7695-1.7812 2.8594-4.2305 2.8594-6.9297 0-5.4258-4.4141-9.8398-9.8438-9.8398-5.4258 0-9.8438 4.4141-9.8438 9.8398 0 2.6992 1.0938 5.1484 2.8594 6.9297-3.7266 0.44922-6.875 1.7812-9.8516 4.1602l-5.3008 4.2344c-1.4609 1.1719-3.1914 1.5312-5 1.0508l-10.461-2.7891c-0.61328-1.5117-1.4453-3.2812-3.7383-3.9844-2.1133-0.64844-4.4609-0.070313-5.9219 1.3516l-3.3633-0.53516c-2.4648-0.39453-4.8164 1.2109-5.3398 3.6484l-0.035156 0.16016c-0.51562 2.3867 0.91406 4.8008 3.2539 5.5l26.414 7.8945c1.5586 0.46484 3.0312 0.51562 4.6133 0.15625l9.3008-2.125-1.6992 20.156c-4.0195 0.76953-7.0586 4.3047-7.0586 8.5391 0 2.5938 1.1406 4.9258 2.9453 6.5156-2.8633 1.2812-5.2344 3.4805-6.7266 6.2266-1.4883-2.75-3.8594-4.9492-6.7305-6.2266 1.8047-1.5938 2.9453-3.9258 2.9453-6.5156 0-4.7969-3.8984-8.6953-8.6914-8.6953-4.7969 0-8.6953 3.8984-8.6953 8.6953 0 2.5938 1.1445 4.9258 2.9492 6.5156-4.9609 2.2109-8.4297 7.1797-8.4297 12.949v11.02c0 2.8945 2.3555 5.25 5.2539 5.25h92.684c2.8945 0 5.25-2.3555 5.25-5.25v-11.02c0-5.7695-3.4648-10.738-8.4258-12.949 1.8047-1.5938 2.9453-3.9258 2.9453-6.5156 0-4.7969-3.8984-8.6953-8.6914-8.6953-4.7969 0-8.6953 3.8984-8.6953 8.6953 0 2.5938 1.1406 4.9258 2.9453 6.5156-2.8633 1.2812-5.2383 3.4805-6.7266 6.2266-1.4844-2.75-3.8594-4.9492-6.7305-6.2266 1.8047-1.5938 2.9492-3.9258 2.9492-6.5156 0-4.2344-3.0469-7.7695-7.0586-8.5391l-1.6953-20.156 9.3008 2.125c1.5859 0.35938 3.0547 0.31641 4.6133-0.15625l26.414-7.8945c2.3516-0.69531 3.7734-3.1094 3.2617-5.5z" fill="#545454" fill-rule="evenodd"/>
</svg>
