<?xml version="1.0" encoding="UTF-8"?>
<svg width="128pt" height="128pt" version="1.1" viewBox="0 0 128 128" xmlns="http://www.w3.org/2000/svg">
 <path d="m23.375 24.031h37.32c3.0352 0.003906 5.5 2.4648 5.5078 5.5039v36.223c-0.007813 3.0352-2.4688 5.4961-5.5039 5.5039h-37.324c-3.0352-0.007813-5.4961-2.4688-5.5039-5.5039v-36.223c0.007812-3.0352 2.4688-5.4961 5.5039-5.5039zm38 43.629-10.801-18.707-10.867 18.824h20.992c0.23047 0 0.46094-0.039063 0.67969-0.11719zm-25.785 0.11719-6.4805-11.223-6.4102 11.105c0.21484 0.078125 0.44531 0.11719 0.67578 0.11719zm-14.234-4.7617 6.2461-10.82v0.003907c0.31641-0.53906 0.89453-0.87109 1.5195-0.86719 0.625 0.003907 1.1992 0.34375 1.5078 0.88672l7.0234 12.16 11.418-19.773h-0.003906c0.3125-0.53906 0.89062-0.87109 1.5195-0.87109 0.625 0.003906 1.1992 0.34375 1.5039 0.89062l10.629 18.398v-33.484c-0.003906-1.1133-0.91016-2.0156-2.0234-2.0195h-37.32c-1.1133 0.007813-2.0117 0.90625-2.0195 2.0195v33.48zm16-17.219v0.003906c-0.54297-0.54688-1.3672-0.71094-2.0781-0.41406-0.71484 0.29688-1.1797 0.99219-1.1797 1.7656 0 0.76953 0.46484 1.4688 1.1797 1.7617 0.71094 0.29688 1.5352 0.13281 2.0781-0.41406 0.74609-0.74609 0.74609-1.9531 0-2.6992zm-1.3516-4.0508 0.003906 0.003906c-1.8047 0-3.4922 0.89844-4.4922 2.3984-1.0039 1.5-1.1914 3.4023-0.5 5.0703 0.6875 1.668 2.168 2.8789 3.9375 3.2305 1.7695 0.35156 3.5977-0.20703 4.8711-1.4805 1.543-1.5469 2.0039-3.8672 1.168-5.8828-0.83594-2.0195-2.8047-3.332-4.9844-3.3359zm80.996-28.574h-105.99c-0.33594 0.003906-0.60937 0.27344-0.61328 0.61328v3.6953c0.003907 0.33594 0.27734 0.60938 0.61328 0.61328h106c0.33984-0.003906 0.60938-0.27734 0.61328-0.61328v-3.6953c-0.003907-0.33984-0.27344-0.60938-0.61328-0.61328zm-4.0859 8.4141h-97.828v67.672h97.828zm-65.234 71.164-8.7148 22.078h3.7773l8.7148-22.078zm28.211 7.8594-3.1016-7.8516-17.578-0.003906-3.1016 7.8555zm2.4453 6.1797h-28.672l1.0625-2.6953h26.543l1.0625 2.6953zm5.7383-14.039h30.594c0.95703-0.003906 1.7344-0.78125 1.7383-1.7422v-69.422h0.59375c2.2617-0.003907 4.0977-1.8398 4.1016-4.1055v-3.6953c-0.003906-2.2656-1.8398-4.1016-4.1016-4.1055h-105.99c-2.2656 0.003906-4.0977 1.8398-4.1016 4.1055v3.6953c0 2.2656 1.8359 4.1016 4.1016 4.1055h0.59375v69.422c0 0.96484 0.78125 1.7461 1.7461 1.7461h30.594l-9.1445 23.125c-0.23438 0.53906-0.18359 1.1602 0.14062 1.6523s0.87109 0.78906 1.4609 0.78906h7.5312c0.71484 0 1.3594-0.4375 1.6211-1.1016l2.7383-6.9375h31.422l2.7383 6.9375c0.26172 0.66406 0.90625 1.1016 1.6211 1.1016h7.5312c0.58984 0 1.1367-0.29297 1.4609-0.78516 0.32422-0.49219 0.375-1.1172 0.14062-1.6562l-9.1328-23.129zm-7.5312 0 8.7188 22.078h3.7734l-8.7148-22.078zm8.9219-59.203c-0.96484 0-1.7461-0.78125-1.7461-1.7422 0-0.96484 0.78125-1.7461 1.7461-1.7461h15.465c0.96484 0 1.7461 0.78125 1.7461 1.7461 0 0.96094-0.78125 1.7422-1.7461 1.7422zm-10.359 0h0.003906c-0.96484 0-1.7461-0.78125-1.7461-1.7422 0-0.96484 0.78125-1.7461 1.7461-1.7461h4.0781-0.003906c0.96484 0 1.7461 0.78125 1.7461 1.7461 0 0.96094-0.78125 1.7422-1.7461 1.7422zm20.254 10.125c-0.94531-0.027344-1.6992-0.80078-1.6992-1.7461 0-0.94531 0.75391-1.7188 1.6992-1.7461h5.5703c0.94531 0.027343 1.6953 0.80078 1.6953 1.7461 0 0.94531-0.75 1.7188-1.6953 1.7461zm-20.254 0c-0.46875 0.011719-0.92578-0.16797-1.2656-0.49609-0.33594-0.32812-0.52734-0.77734-0.52734-1.25 0-0.47266 0.19141-0.92188 0.52734-1.25 0.33984-0.32812 0.79688-0.50781 1.2656-0.49609h14.098c0.46875-0.011719 0.92578 0.16797 1.2656 0.49609 0.33594 0.32812 0.52734 0.77734 0.52734 1.25 0 0.47266-0.19141 0.92188-0.52734 1.25-0.33984 0.32812-0.79688 0.50781-1.2656 0.49609zm0 10.125v-0.003906c-0.46875 0.015625-0.92578-0.16406-1.2656-0.49219-0.33594-0.32812-0.52734-0.78125-0.52734-1.25 0-0.47266 0.19141-0.92578 0.52734-1.2539 0.33984-0.32812 0.79688-0.50391 1.2656-0.49219h25.824c0.94531 0.023437 1.6992 0.79687 1.6992 1.7461 0 0.94531-0.75391 1.7188-1.6992 1.7422zm11.246 10.125 0.003907-0.003906c-0.47266 0.011719-0.92969-0.16406-1.2656-0.49219-0.33984-0.33203-0.52734-0.78125-0.52734-1.2539 0-0.46875 0.1875-0.92188 0.52734-1.25 0.33594-0.32812 0.79297-0.50781 1.2656-0.49609h14.574c0.94531 0.027344 1.6992 0.80078 1.6992 1.7461s-0.75391 1.7188-1.6992 1.7461zm-11.246 0v-0.003906c-0.46875 0.011719-0.92578-0.16406-1.2656-0.49219-0.33594-0.33203-0.52734-0.78125-0.52734-1.2539 0-0.46875 0.19141-0.92188 0.52734-1.25 0.33984-0.32812 0.79688-0.50781 1.2656-0.49609h4.6172c0.46875-0.011719 0.92578 0.16797 1.2656 0.49609 0.33594 0.32812 0.52734 0.78125 0.52734 1.25 0 0.47266-0.19141 0.92188-0.52734 1.2539-0.33984 0.32812-0.79688 0.50391-1.2656 0.49219zm-6.6016 10.121c-0.96094 0-1.7461-0.78125-1.7461-1.7461s0.78516-1.7461 1.7461-1.7461h32.426c0.96484 0 1.7461 0.78125 1.7461 1.7461s-0.78125 1.7461-1.7461 1.7461zm-27.594 10.121c-0.94531-0.027343-1.6992-0.80078-1.6992-1.7461 0-0.94531 0.75391-1.7188 1.6992-1.7461h60.02c0.94531 0.027344 1.6992 0.80078 1.6992 1.7461 0 0.94531-0.75391 1.7188-1.6992 1.7461zm-16.941 0c-0.94531-0.027343-1.6992-0.80078-1.6992-1.7461 0-0.94531 0.75391-1.7188 1.6992-1.7461h7.8359c0.47266-0.011719 0.92969 0.16797 1.2656 0.49609 0.33594 0.32812 0.52734 0.78125 0.52734 1.25 0 0.47266-0.19141 0.92188-0.52734 1.25-0.33594 0.33203-0.79297 0.50781-1.2656 0.49609z" fill="#545454" fill-rule="evenodd"/>
</svg>
