<?xml version="1.0" encoding="UTF-8"?>
<svg width="128pt" height="128pt" version="1.1" viewBox="0 0 128 128" xmlns="http://www.w3.org/2000/svg">
 <path d="m112.71 13.48-36.32 41.418c-2.6445-1.9844-4.9766-4.3203-6.9609-6.9609l41.426-36.324c0.51953-0.44531 1.3047-0.42969 1.7969 0.054688 0.48828 0.50391 0.51562 1.2969 0.058594 1.8086zm-45.211 37.516c-2.1836 0.87891-3.6914 1.7812-4.5781 2.7266-1.3281 1.4102-1.4492 2.9844-1.6055 4.9766-0.17188 2.1836-0.375 4.7891-2.4414 7.3086 6.3984-1.3789 12.504-3.8359 14.855-8.8633-2.3086-1.8047-4.3906-3.8633-6.2305-6.1445zm28.66 5.4492v-18.934l-18.23 20.789c-0.32813 0.375-0.78906 0.57422-1.2617 0.57812-3.9102 7.9102-14.555 10.34-23.605 11.555-0.074219 0.011718-0.14844 0.015625-0.22656 0.015625-0.68359 0-1.3086-0.41016-1.5742-1.0547-0.28906-0.71484-0.066407-1.5352 0.55078-2 0.32422-0.24609 0.73047-0.53516 1.1484-0.83594 0.55078-0.38672 1.1719-0.82812 1.7734-1.2852 2.8203-2.1484 2.9844-4.3203 3.1836-6.8398 0.17188-2.2344 0.37109-4.7656 2.5234-7.0508 1.1289-1.1992 2.7656-2.25 5.0664-3.2461-0.17578-0.61328 0.011719-1.3008 0.51563-1.7383l20-17.535h-39.621c-3.7266 2.8008-6.9141 5.8555-5.9883 9.2383 0.26172 0.95313 1.3594 2.2188 2.5195 3.5664 1.2734 1.4688 2.7188 3.1367 3.6445 5.0469 1.5 3.1133 1.9492 5.0117 1.5391 6.5352-0.46484 1.7266-1.8984 2.5312-3.2852 3.3047-1.1758 0.66016-2.5039 1.4102-3.8867 2.8711-0.84375 0.89453-1.7148 2.4883-2.5586 4.0391-1.4805 2.7188-2.6562 4.8633-4.5039 5.25-3.1406 0.64453-4.8789-3.2969-5.5312-4.7812l-0.16406-0.37109c-1.2148-2.7812-1.4336-3.2852-4.4609-3.0195-2.1367 0.18359-3.4414 1.7148-5.3906 4.1953-0.96094 1.2266-2.0391 2.5898-3.375 3.7969v17.832c0 1.5938 1.2969 2.8945 2.8945 2.8945h47.941c0.046875-0.10156 0.089844-0.19531 0.13672-0.29688 0.85156-1.9336 1.1133-4.5781 1.375-7.1367 0.39453-3.9219 0.76953-7.625 3.4844-8.7969 2.4414-1.0547 4.7969 0.27344 6.875 1.4492 2.5859 1.4609 4.2656 2.2969 6.1016 0.96875 1.1953-0.85938 1.25-2.0547 1.2539-4.4688 0.003906-3.4414 0.015624-8.1484 6.0391-12.328 1.5156-1.0508 3.2266-1.7891 5.0898-2.2109zm-2.8945 32.816h-23.812c0.73828-2.2148 1-4.7852 1.2344-7.0859 0.22656-2.2461 0.57031-5.6367 1.4492-6.0156 0.89062-0.38672 2.3281 0.42969 3.8555 1.2891 2.5586 1.4453 6.0664 3.4297 9.7617 0.76953 2.6562-1.9141 2.6602-4.7344 2.6641-7.2188 0.003906-3.2812 0.015625-6.3789 4.5781-9.5469 0.96484-0.67188 2.0117-1.1641 3.1562-1.5l0.003906 26.41c0 1.5938-1.3008 2.8945-2.8945 2.8945zm-75.406-60.395h23.211c-2.6484 2.5195-5.0703 5.9844-3.9297 10.141 0.46484 1.6953 1.8086 3.25 3.2305 4.8906 1.1953 1.375 2.4258 2.7969 3.1484 4.3008 1.3594 2.8242 1.4102 3.8242 1.3164 4.1719-0.089844 0.32422-0.69141 0.67969-1.6641 1.2305-1.25 0.69922-2.9609 1.6602-4.6953 3.5-1.1445 1.2109-2.1211 3.0039-3.0703 4.7461-0.625 1.1406-1.6367 3-2.2109 3.5-0.21875-0.14844-0.82422-0.71484-1.7305-2.7695l-0.16016-0.36328c-1.2969-2.9609-2.4141-5.5156-7.875-5.0469-3.7109 0.32422-5.7734 2.9453-7.7695 5.4805-0.23047 0.29687-0.46484 0.58984-0.70312 0.88672l0.015625-31.77c0-1.5938 1.2969-2.8906 2.8906-2.8906zm30.121-5.5859c0-0.73438 0.59375-1.3281 1.3242-1.3281h12.516c0.73438 0 1.3281 0.59375 1.3281 1.3281v2.1836h-15.172zm67.074-14.004c-1.75-1.75-4.5781-1.8359-6.4414-0.21484l-18.711 16.406h-23.355v-2.1836c0-2.6094-2.1211-4.7305-4.7305-4.7305h-12.516c-2.6055 0-4.7266 2.1211-4.7266 4.7305v2.1836h-26.719c-3.4688 0-6.2891 2.8203-6.2891 6.2891v54.609c0 3.4688 2.8203 6.2969 6.2891 6.2969h24.289l-14.371 24.891c-0.46875 0.81641-0.19141 1.8516 0.62109 2.3203 0.26953 0.15625 0.55859 0.23047 0.85156 0.23047 0.58594 0 1.1602-0.30469 1.4766-0.85156l15.352-26.59h7.7852v25.738c0 0.94141 0.76172 1.6992 1.6992 1.6992 0.94141 0 1.6992-0.76172 1.6992-1.6992l0.003907-25.738h7.7891l15.344 26.586c0.31641 0.54688 0.88672 0.85156 1.4766 0.85156 0.28516 0 0.57812-0.070312 0.85156-0.23047 0.81641-0.46875 1.0898-1.5117 0.625-2.3203l-14.371-24.883h24.289c3.4688 0 6.2969-2.8203 6.2969-6.2969l-0.003906-52.73 15.707-17.914c1.6289-1.8633 1.5391-4.6953-0.21094-6.4453zm-57.141 73.012c-1.2148 0-2.1992-0.98437-2.1992-2.1953s0.98438-2.1992 2.1992-2.1992c1.2109 0 2.1953 0.98438 2.1953 2.1992 0 1.2109-0.98438 2.1953-2.1953 2.1953zm0-7.7969c3.0859 0 5.5938 2.5117 5.5938 5.6016 0 3.0859-2.5117 5.5938-5.5938 5.5938-3.0898 0-5.6016-2.5117-5.6016-5.5938 0-3.0898 2.5117-5.6016 5.6016-5.6016zm-24.281 8.1836c-1.7344 0-3.1445-1.4102-3.1445-3.1445s1.4141-3.1445 3.1445-3.1445c1.7344 0 3.1445 1.4141 3.1445 3.1445 0 1.7344-1.4102 3.1445-3.1445 3.1445zm0-9.6914c3.6094 0 6.5469 2.9336 6.5469 6.5469 0 3.6094-2.9336 6.5469-6.5469 6.5469-3.6094 0-6.5469-2.9336-6.5469-6.5469 0-3.6055 2.9414-6.5469 6.5469-6.5469z" fill="#545454" fill-rule="evenodd"/>
</svg>
