<?xml version="1.0" encoding="UTF-8"?>
<svg width="128pt" height="128pt" version="1.1" viewBox="0 0 128 128" xmlns="http://www.w3.org/2000/svg">
 <path d="m71.371 19.656c1.5508 0 3.4883-0.26172 4.9141-1.5508 1.4219-1.2969 2.1992-3.3594 2.3242-6.4648v-1.8164c0-0.26172-0.12891-0.64453-0.39062-0.90625s-0.51562-0.39062-0.90625-0.39062l-13.574-0.125c-0.64453 0-1.2969 0.51562-1.2969 1.1641l-0.12891 1.8086c0 2.8438 0.64453 4.9141 1.9414 6.3359 1.6797 1.6797 4.2656 1.9414 6.0742 1.9414h1.0391zm-6.3359-8.1484v-0.64453h11.121v0.51562c-0.12891 2.4531-0.64453 4.0117-1.5508 4.7852-0.77344 0.77344-2.0703 1.0352-4.0117 0.90625h-0.12891c-2.0703 0-3.4883-0.39062-4.2656-1.1641-0.78125-0.77344-1.1641-2.3242-1.1641-4.3945z" fill="#545454"/>
 <path d="m60.508 109.12c-0.39062-0.26172-0.90625-0.26172-1.2969 0.12891-0.26172 0.39062-0.26172 0.90625 0.12891 1.2969l1.0352 0.90625c0.26172 0.12891 0.39062 0.26172 0.64453 0.26172 0.26172 0 0.51562-0.12891 0.64453-0.39062 0.26172-0.39062 0.26172-0.90625-0.12891-1.2969z" fill="#545454"/>
 <path d="m92.445 113.91-1.0352 0.51562c-0.39062 0.12891-0.64453 0.77344-0.39062 1.1641 0.12891 0.39062 0.39062 0.51562 0.77344 0.51562 0.12891 0 0.26172 0 0.39062-0.12891l1.0352-0.51562c0.39062-0.12891 0.64453-0.77344 0.39062-1.1641-0.12891-0.38672-0.78125-0.64062-1.1641-0.38672z" fill="#545454"/>
 <path d="m81.715 107.57c-0.51562 0-0.90625 0.39063-0.90625 0.90625 0 0.51563 0.39062 0.90625 1.0352 0.90625 0.51562 0 0.90625-0.39062 0.90625-0.90625-0.003906-0.51562-0.51953-0.90625-1.0352-0.90625z" fill="#545454"/>
 <path d="m70.336 102.14-1.1641 0.51562c-0.51562 0.12891-0.77344 0.64453-0.51562 1.1641 0.12891 0.26172 0.39062 0.51563 0.77344 0.51563 0.12891 0 0.26172 0 0.39062-0.12891l1.1641-0.39062c0.51562-0.12891 0.77344-0.64453 0.51562-1.1641-0.12891-0.51172-0.64453-0.76562-1.1641-0.51172z" fill="#545454"/>
 <path d="m70.074 117.14c-0.51562 0-0.90625 0.51562-0.90625 1.0352 0 0.51562 0.39062 0.90625 0.90625 0.90625s0.90625-0.39062 0.90625-0.90625v-0.12891c0-0.51953-0.38672-0.90625-0.90625-0.90625z" fill="#545454"/>
 <path d="m33.617 111.97c-0.51563 0-0.90625 0.39062-0.90625 0.90625v0.64453c0 0.51562 0.39062 0.90625 0.90625 0.90625 0.51562 0 0.90625-0.39062 0.90625-0.90625v-0.64453c0-0.51953-0.38672-0.90625-0.90625-0.90625z" fill="#545454"/>
 <path d="m47.969 100.85c-0.51562-0.26172-1.0352 0-1.1641 0.51563l-0.12891 0.39062c-0.26172 0.51563 0 1.0352 0.51562 1.1641h0.26172c0.39062 0 0.77344-0.26172 0.90625-0.51562l0.12891-0.39062c0.26172-0.51953 0-0.91016-0.51562-1.1641z" fill="#545454"/>
 <path d="m43.184 112.36c-0.51562 0-0.90625 0.39062-0.90625 0.90625v0.39062c0 0.51562 0.39062 0.90625 0.90625 0.90625s0.90625-0.39062 0.90625-0.90625v-0.39062c0-0.51562-0.39062-0.90625-0.90625-0.90625z" fill="#545454"/>
 <path d="m20.945 118.3c-0.51562 0-0.90625 0.39062-0.90625 0.90625v0.12891c0 0.51562 0.39063 0.90625 0.90625 0.90625 0.51563 0 0.90625-0.39062 0.90625-0.90625v-0.12891c0-0.51953-0.38672-0.90625-0.90625-0.90625z" fill="#545454"/>
 <path d="m109.64 117.14h-1.1641c-0.51562 0-0.90625 0.39062-0.90625 0.90625s0.39063 0.90625 0.90625 0.90625h1.1641c0.51562 0 0.90625-0.39062 0.90625-0.90625 0-0.51953-0.38672-0.90625-0.90625-0.90625z" fill="#545454"/>
 <path d="m81.066 115.71c-0.51562 0-0.90625 0.39062-0.90625 0.90625v0.77344c0 0.51562 0.39062 0.90625 0.90625 0.90625s0.90625-0.39062 0.90625-0.90625v-0.77344c0-0.51562-0.38672-0.90625-0.90625-0.90625z" fill="#545454"/>
 <path d="m55.727 102.91-0.90625 0.51953c-0.51562 0.26172-0.64453 0.90625-0.39062 1.2969 0.12891 0.39062 0.51562 0.51562 0.77344 0.51562 0.12891 0 0.26172 0 0.39062-0.12891l1.0352-0.51563c0.51562-0.26172 0.64453-0.90625 0.39062-1.2969-0.26172-0.51563-0.90625-0.64453-1.2969-0.39063z" fill="#545454"/>
 <path d="m124.77 121.02h-5.3008c0-0.12891-0.12891-0.26172-0.26172-0.39062l-3.8789-4.3945c-0.26172-0.26172-0.51562-0.77344-0.64453-1.2969l-0.12891-0.26172c-0.51953-3.4883-3.75-6.0742-7.5-6.0742-0.77344 0-1.5508 0.12891-2.0703 0.26172-0.26172 0-0.39062 0.12891-0.64453 0.12891-0.90625 0.26172-1.5508 0.12891-2.4531-0.26172-1.6797-1.2969-3.8789-1.9414-6.5938-1.9414h-1.1641c-0.51562 0-1.1641-0.12891-1.6797-0.51562 0.12891-0.12891 0.12891-0.26172 0.26172-0.39063l0.26172-36.199c0.12891-1.1641-0.26172-2.1992-1.1641-2.8438-0.90625-0.51562-1.9414-0.64453-2.7148-0.39062-4.5234 1.2969-9.1797 2.0703-14.609 2.4531l0.26172-43.961c2.4531-0.26172 4.6562-1.4219 6.3359-3.2305 2.0703-2.0703 3.1055-4.9141 2.8438-7.5l0.125-6.9805c0.12891-0.90625-0.26172-1.9414-0.90625-2.5859s-1.4219-1.0352-2.3242-0.90625l-20.945-0.39062c-0.90625-0.12891-1.9414 0.26172-2.5859 0.90625-0.64453 0.51562-1.0352 1.4219-0.90625 2.3242v7.2383c0 5.5586 4.1367 10.344 9.5703 10.988l-0.39062 44.09c-5.5586-0.64453-10.086-1.5508-14.352-2.7148h-0.26172c-1.1641-0.12891-2.3242 0.26172-3.1055 1.0352-0.51562 0.51562-0.77344 1.2969-0.77344 2.0703l-0.26172 25.992c-3.6211 0.51562-6.5938 1.9414-8.5352 3.8789-0.64453 0.64453-1.1641 0.90625-1.4219 0.90625-2.8438 0.39062-5.4297 1.9414-6.9805 4.1367-0.12891 0.26172-0.64453 1.0352-2.3242 0.77344-0.51562-0.12891-1.0352-0.12891-1.6797-0.12891-3.2305 0-6.2031 1.9414-8.0156 5.3008-0.12891 0.51562-0.64453 0.90625-1.2969 1.2969-3.75 1.5508-6.2031 5.1719-6.2031 9.1797 0 0.12891 0 0.26172 0.12891 0.39062h-7.375c-0.77344 0-1.2969 0.51562-1.2969 1.2969 0 0.77344 0.51562 1.2969 1.2969 1.2969h121.66c0.77344 0 1.2969-0.51562 1.2969-1.2969-0.003906-0.78125-0.51953-1.2969-1.2969-1.2969zm-65.809-107.18v-7.3711s0-0.26172 0.12891-0.39062c0.12891-0.12891 0.26172-0.12891 0.51562-0.12891h0.12891l21.074 0.39063h0.12891c0.12891 0 0.26172 0 0.39062 0.12891 0.125 0.12891 0.125 0.39062 0.125 0.64453l-0.12891 7.1094c0.12891 1.9414-0.51562 4.0117-2.0703 5.5586-1.5508 1.6797-3.75 2.5859-5.9453 2.5859h-5.9531c-4.6562 0.003907-8.3984-3.875-8.3984-8.5312zm13.184 11.121-0.39062 57.406c0 1.1641-1.0352 2.0703-1.6797 2.0703-1.1641-0.12891-2.0703-1.0352-2.0703-1.8086l0.51953-57.664zm-22.496 44.344c0-0.26172 0.39062-0.51562 0.90625-0.51562 4.5234 1.2969 9.1797 2.0703 15 2.7148l-0.12891 11.121c0 2.1992 2.0703 4.2656 4.5234 4.3945 2.1992 0 4.2656-2.0703 4.3945-4.5234l0.12891-11.121c5.6914-0.39062 10.602-1.1641 15.254-2.4531 0.12891-0.12891 0.12891 0 0.26172 0 0.12891 0.12891 0.12891 0.26172 0.12891 0.64453l-0.26172 34.781c-1.5508-0.90625-3.3594-1.4219-5.1719-1.4219h-1.0352c-0.90625 0-2.0703-0.26172-2.7148-1.4219-2.3242-4.0117-7.2383-6.5938-12.672-6.5938-2.9766 0-5.5586 0.64453-7.5 1.8086-0.64453 0.39062-1.4219 0.39062-2.3242 0.12891-2.3242-1.1641-5.1719-1.8086-8.4062-1.8086h-0.64453zm-36.852 51.719c0-0.12891 0.12891-0.26172 0.12891-0.39062 0-2.9766 1.8086-5.6914 4.7852-6.5938 0.12891 0 0.12891-0.12891 0.26172-0.12891 0.77344-0.64453 1.8086-1.2969 2.3242-2.4531 1.2969-2.4531 3.3594-3.8789 5.6914-3.8789h1.1602c2.1992 0.39062 4.0117-0.26172 5.0391-1.8086 1.1641-1.6797 3.1055-2.8438 5.1719-3.1055 1.0352-0.12891 1.9414-0.64453 2.9766-1.6797 2.0703-2.0703 5.6914-3.3594 9.9531-3.3594 2.8438 0 5.3008 0.51562 7.2383 1.5508 0.12891 0.12891 0.12891 0.12891 0.26172 0.12891 1.5508 0.51562 2.9766 0.51562 4.3945-0.12891l0.12891-0.12891c1.5508-0.90625 3.75-1.4219 6.2031-1.4219 4.5234 0 8.5352 2.0703 10.344 5.1719 0.90625 1.9414 2.9766 2.9766 5.1719 2.8438h0.90625c2.1992 0 4.1367 0.77344 5.4297 2.1992 1.2969 1.2969 2.7148 1.8086 4.1367 1.6797h1.0352c2.1992 0 3.8789 0.51562 5.1719 1.4219 0 0.12891 0.12891 0.12891 0.12891 0.12891 1.5508 0.77344 2.8438 1.0352 4.3945 0.51562 0.12891 0 0.26172-0.12891 0.51562-0.12891 0.51562-0.12891 1.0352-0.26172 1.5508-0.26172 2.4531 0 4.6562 1.6797 4.9141 4.0117 0 0 0.12891 0.12891 0.12891 0.26172l0.12891 0.39062c0.26172 0.64453 0.51562 1.2969 1.0352 1.9414l2.8438 3.2305z" fill="#545454"/>
</svg>
